<?xml version="1.0" encoding="UTF-8" standalone="no"?>
<!-- Created with Inkscape (http://www.inkscape.org/) -->

<svg
   version="1.1"
   id="svg2"
   width="462.66666"
   height="102.66667"
   viewBox="0 0 462.66666 102.66667"
   sodipodi:docname="Logo_Nordic_Greens_horizontal_positive.ai"
   xmlns:inkscape="http://www.inkscape.org/namespaces/inkscape"
   xmlns:sodipodi="http://sodipodi.sourceforge.net/DTD/sodipodi-0.dtd"
   xmlns="http://www.w3.org/2000/svg"
   xmlns:svg="http://www.w3.org/2000/svg">
  <defs
     id="defs6">
    <clipPath
       clipPathUnits="userSpaceOnUse"
       id="clipPath16">
      <path
         d="M 0,77 H 347 V 0 H 0 Z"
         id="path14" />
    </clipPath>
  </defs>
  <sodipodi:namedview
     id="namedview4"
     pagecolor="#ffffff"
     bordercolor="#000000"
     borderopacity="0.25"
     inkscape:showpageshadow="2"
     inkscape:pageopacity="0.0"
     inkscape:pagecheckerboard="0"
     inkscape:deskcolor="#d1d1d1" />
  <g
     id="g8"
     inkscape:groupmode="layer"
     inkscape:label="Logo_Nordic_Greens_horizontal_positive"
     transform="matrix(1.3333333,0,0,-1.3333333,0,102.66667)">
    <g
       id="g10">
      <g
         id="g12"
         clip-path="url(#clipPath16)">
        <g
           id="g18"
           transform="translate(103.4039,40.6639)">
          <path
             d="m 0,0 c -1.116,1.19 -2.643,3.118 -2.643,3.118 0,0 0.288,-2.298 0.288,-4.023 v -15.39 h -4.049 v 28.197 h 0.579 L 9.666,-4.637 c 1.074,-1.15 2.603,-3.118 2.603,-3.118 0,0 -0.29,2.46 -0.29,4.02 v 15.349 h 4.05 V -16.58 H 15.49 Z"
             style="fill:#2b3d25;fill-opacity:1;fill-rule:nonzero;stroke:none"
             id="path20" />
        </g>
        <g
           id="g22"
           transform="translate(138.6035,32.9893)">
          <path
             d="m 0,0 c 0,3.159 -1.942,5.376 -5.04,5.376 -3.098,0 -5.081,-2.217 -5.081,-5.376 0,-3.159 1.983,-5.416 5.081,-5.416 C -1.942,-5.416 0,-3.159 0,0 m -14.417,0 c 0,5.129 4.13,8.987 9.377,8.987 5.289,0 9.336,-3.858 9.336,-8.987 0,-5.128 -4.047,-8.989 -9.336,-8.989 -5.247,0 -9.377,3.861 -9.377,8.989"
             style="fill:#2b3d25;fill-opacity:1;fill-rule:nonzero;stroke:none"
             id="path24" />
        </g>
        <g
           id="g26"
           transform="translate(147.3216,41.6061)">
          <path
             d="m 0,0 h 4.173 l -0.04,-3.241 c 1.156,2.709 3.139,3.57 5.04,3.57 1.238,0 2.105,-0.289 2.849,-0.739 L 10.619,-4.145 C 9.957,-3.816 9.296,-3.57 8.347,-3.57 5.866,-3.57 4.173,-5.006 4.173,-8.865 v -8.372 H 0 Z"
             style="fill:#2b3d25;fill-opacity:1;fill-rule:nonzero;stroke:none"
             id="path28" />
        </g>
        <g
           id="g30"
           transform="translate(175.5415,33.0297)">
          <path
             d="m 0,0 c 0,3.119 -1.986,5.252 -5.043,5.252 -3.013,0 -4.914,-2.133 -4.914,-5.252 0,-3.24 1.901,-5.376 4.914,-5.376 C -1.986,-5.376 0,-3.24 0,0 m -14.254,0 c 0,5.211 3.635,8.946 8.057,8.946 3.054,0 4.873,-1.396 6.03,-3.365 V 20.97 H 4.047 V -8.661 h -4.214 l 0.126,3.123 c -1.075,-2.096 -3.184,-3.492 -6.077,-3.492 -4.501,0 -8.136,3.817 -8.136,9.03"
             style="fill:#2b3d25;fill-opacity:1;fill-rule:nonzero;stroke:none"
             id="path32" />
        </g>
        <path
           d="m 185.004,41.606 h 4.214 V 24.369 h -4.214 z m -0.662,6.689 c 0,1.562 1.283,2.711 2.767,2.711 1.488,0 2.767,-1.149 2.767,-2.711 0,-1.641 -1.279,-2.75 -2.767,-2.75 -1.484,0 -2.767,1.109 -2.767,2.75"
           style="fill:#2b3d25;fill-opacity:1;fill-rule:nonzero;stroke:none"
           id="path34" />
        <g
           id="g36"
           transform="translate(193.7632,32.9893)">
          <path
             d="m 0,0 c 0,5.129 3.965,8.987 9.254,8.987 3.262,0 5.368,-1.231 7.021,-3.282 L 13.301,3.322 C 12.475,4.515 11.03,5.336 9.254,5.336 6.155,5.336 4.296,3.078 4.296,0 c 0,-3.078 1.859,-5.336 4.958,-5.336 2.063,0 3.304,0.862 4.253,1.929 l 2.851,-2.464 C 14.666,-7.796 12.6,-8.989 9.254,-8.989 3.965,-8.989 0,-5.173 0,0"
             style="fill:#2b3d25;fill-opacity:1;fill-rule:nonzero;stroke:none"
             id="path38" />
        </g>
        <g
           id="g40"
           transform="translate(223.0126,38.3248)">
          <path
             d="m 0,0 c 0,8.329 6.076,14.282 14.417,14.282 4.299,0 7.685,-1.19 9.959,-3.736 L 21.442,7.631 C 19.829,9.316 17.766,10.384 14.417,10.384 8.553,10.384 4.463,5.949 4.463,0 c 0,-5.952 4.13,-10.423 10.492,-10.423 2.892,0 5.372,0.738 6.94,1.803 v 4.926 H 14.337 V 0.122 H 25.906 V -10.752 C 24.087,-12.396 20.203,-14.325 14.955,-14.325 6.199,-14.325 0,-8.332 0,0"
             style="fill:#2b3d25;fill-opacity:1;fill-rule:nonzero;stroke:none"
             id="path42" />
        </g>
        <g
           id="g44"
           transform="translate(254.1658,41.6061)">
          <path
             d="m 0,0 h 4.172 l -0.04,-3.241 c 1.156,2.709 3.137,3.57 5.04,3.57 1.238,0 2.107,-0.289 2.848,-0.739 L 10.618,-4.145 C 9.956,-3.816 9.296,-3.57 8.345,-3.57 5.867,-3.57 4.172,-5.006 4.172,-8.865 v -8.372 H 0 Z"
             style="fill:#2b3d25;fill-opacity:1;fill-rule:nonzero;stroke:none"
             id="path46" />
        </g>
        <g
           id="g48"
           transform="translate(282.0951,34.467)">
          <path
             d="M 0,0 C -0.374,2.339 -1.818,4.061 -4.711,4.061 -7.396,4.061 -9.254,2.583 -9.75,0 Z m -4.256,-6.975 c 2.274,0 3.924,0.901 4.916,1.843 l 2.438,-2.543 c -1.613,-1.599 -3.843,-2.792 -7.314,-2.792 -5.949,0 -9.792,3.817 -9.792,8.989 0,5.129 4.051,8.987 9.255,8.987 5.908,0 9.254,-4.35 8.965,-10.383 H -9.75 c 0.496,-2.502 2.313,-4.101 5.494,-4.101"
             style="fill:#2b3d25;fill-opacity:1;fill-rule:nonzero;stroke:none"
             id="path50" />
        </g>
        <g
           id="g52"
           transform="translate(303.8669,34.467)">
          <path
             d="M 0,0 C -0.37,2.339 -1.817,4.061 -4.71,4.061 -7.394,4.061 -9.254,2.583 -9.749,0 Z m -4.256,-6.975 c 2.274,0 3.925,0.901 4.917,1.843 l 2.437,-2.543 c -1.61,-1.599 -3.841,-2.792 -7.31,-2.792 -5.949,0 -9.792,3.817 -9.792,8.989 0,5.129 4.049,8.987 9.255,8.987 5.908,0 9.251,-4.35 8.962,-10.383 H -9.749 c 0.495,-2.502 2.314,-4.101 5.493,-4.101"
             style="fill:#2b3d25;fill-opacity:1;fill-rule:nonzero;stroke:none"
             id="path54" />
        </g>
        <g
           id="g56"
           transform="translate(312.5031,41.6061)">
          <path
             d="M 0,0 H 4.172 L 4.088,-3.2 c 1.075,2.258 3.267,3.57 5.869,3.57 3.843,0 6.487,-2.708 6.487,-7.386 v -10.221 h -4.173 v 9.892 c 0,2.464 -1.158,3.898 -3.595,3.898 -2.728,0 -4.504,-1.641 -4.504,-4.43 v -9.36 H 0 Z"
             style="fill:#2b3d25;fill-opacity:1;fill-rule:nonzero;stroke:none"
             id="path58" />
        </g>
        <g
           id="g60"
           transform="translate(332.5008,27.573)">
          <path
             d="m 0,0 2.849,1.969 c 1.074,-1.518 2.687,-2.217 4.669,-2.217 2.107,0 3.059,0.699 3.059,1.847 C 10.577,2.993 9.294,3.2 6.361,4.02 3.8,4.718 1.239,5.908 1.239,9.315 c 0,3.447 2.767,5.088 6.197,5.088 2.768,0 4.709,-1.149 6.031,-2.586 l -2.436,-2.38 c -0.827,0.945 -2.028,1.685 -3.595,1.685 -1.57,0 -2.438,-0.577 -2.438,-1.604 0,-1.312 1.075,-1.6 3.799,-2.295 2.729,-0.698 5.702,-1.766 5.702,-5.42 0,-2.953 -1.817,-5.376 -6.733,-5.376 C 3.8,-3.573 1.156,-1.847 0,0"
             style="fill:#2b3d25;fill-opacity:1;fill-rule:nonzero;stroke:none"
             id="path62" />
        </g>
        <g
           id="g64"
           transform="translate(40.8196,24.2425)">
          <path
             d="m 0,0 c -0.002,0.054 -0.004,0.092 -0.003,0.195 0,0.026 0.019,0.054 0.046,0.054 0,0 15.487,-0.841 20.61,13.369 1.863,5.167 1.464,9.828 0.966,12.344 -0.037,0.19 -0.189,0.336 -0.379,0.366 C 3.993,29.08 -1.369,14.907 0.021,14.577 c 1.021,-0.243 6.574,8.248 17.333,7.536 0.227,-0.015 0.417,-0.218 0.418,-0.445 C 17.819,11.699 11.995,7.923 11.995,7.923 6.744,4.068 1.264,3.188 0.129,3.042 0.011,3.027 -0.089,3.112 -0.096,3.231 c -0.265,4.965 -1.267,8.691 -1.267,8.691 -2.185,7.586 -9.152,11.255 -9.152,11.255 -6.999,3.555 -14.45,2.742 -15.894,2.54 -0.146,-0.021 -0.26,-0.143 -0.268,-0.291 -1.292,-24.404 18.055,-25.697 18.258,-25.701 1.79,-0.04 1.678,1.103 0.631,1.495 -1.536,0.575 -14.995,7.089 -14.724,19.819 0.005,0.221 0.172,0.405 0.39,0.434 1.128,0.153 4.617,0.547 8.383,-1.48 6.798,-3.66 9.704,-10.383 10.017,-13.438 1.281,-12.495 -0.127,-22.717 -0.627,-26.175 -17.86,1.059 -32.048,15.99 -31.909,34.142 0.141,18.46 15.213,33.532 33.673,33.674 C 16.251,48.341 31.62,33.06 31.62,14.258 31.62,-1.996 20.134,-15.616 4.853,-18.917 4.777,-18.934 4.724,-19.004 4.73,-19.082 l 0.316,-4.269 c 0.007,-0.095 0.096,-0.163 0.189,-0.144 17.624,3.52 30.945,19.109 30.945,37.753 0,21.261 -17.324,38.553 -38.597,38.499 -21.109,-0.052 -38.35,-17.294 -38.403,-38.402 -0.052,-21.274 17.239,-38.598 38.5,-38.598 0.958,0 1.907,0.036 2.847,0.105 0.085,0.006 0.149,0.078 0.147,0.162 z"
             style="fill:#a1c24b;fill-opacity:1;fill-rule:nonzero;stroke:none"
             id="path66" />
        </g>
      </g>
    </g>
  </g>
</svg>
